#!OML:ASF F:\VICON\USERDATA\INSTALL\rory3\rory3.ASF
:FULLY-SPECIFIED
:DEGREES
10
root -0.6959254873870899 18.924874767003583 -22.663285905976203 4.0627392297036895 3.903917624823818 -5.5456099984825356
lfemur -34.70798766229211 -1.7892586566870774 -16.929505013172967
ltibia 44.2782992359513
lfoot 1.1932772303764678 -3.479122276727344
ltoes -24.88098140459746
rfemur 11.850985243291762 6.35246209196371 33.1844906205625
rtibia 32.875405828762766
rfoot 27.640879071190692 -6.219501217543474
rtoes 18.253086330572117
lowerback 12.142900956748793 2.330858002880556 5.463089104082491
upperback -2.548812252521394 4.153196825753617 1.9357662717431294
thorax -9.33816919276682 1.7586177029795262 -1.8178496383605651
lowerneck -15.6968095016401 -5.273034089909222 -2.0343902636044753
upperneck 16.621101567429232 -7.06716533039701 1.702281006298021
head 7.851964235767163 -3.320823090941627 0.09257421029679053
lclavicle -9.152775676555186e-16 -7.746725881291738e-16
lhumerus -72.63077648579298 -2.3046303923864415 95.52938822425969
lradius 102.9119901442816
lwrist 34.721187405735066
lhand -23.8489128184445 0.43564386585342696
lfingers 7.125020000000057
lthumb 2.623257180067122 30.399211854342184
rclavicle -9.152775676555186e-16 -7.746725881291738e-16
rhumerus -43.87689524385055 16.9655858994587 -96.73279005737515
rradius 117.9939865109172
rwrist -9.070926052045813
rhand -16.082711047081325 46.09458156334544
rfingers 7.125020000000057
rthumb 10.12028895361084 16.357981473542512
11
root -0.6770427660892091 18.973573633383076 -21.632286352658628 3.721300196999952 4.537085928322432 -5.769179354225926
lfemur -32.93108864719018 -3.406734519975277 -16.515805633594084
ltibia 35.17700283126594
lfoot 2.9542359642146603 -5.58084959348292
ltoes -23.804582542964717
rfemur 12.275085009635559 7.275099906159706 34.17468909381297
rtibia 36.67100441021196
rfoot 26.709779720818677 -5.843041941692594
rtoes 21.893783002934832
lowerback 12.624799261799948 2.2361886349055498 5.862968082909473
upperback -2.492362935139323 4.119066967819029 1.8810067692614911
thorax -9.529248259668496 1.710788156837649 -2.116508441061498
lowerneck -17.634500355645077 -5.398862985104603 -1.7667545676457288
upperneck 17.565199776059753 -7.2854040608192445 1.6055115158031699
head 8.498999848398523 -3.3827122325318335 -0.07675408824642882
lclavicle -9.152774484895197e-16 -7.746725510553891e-16
lhumerus -73.03167620426288 -2.16925054456089 95.30268853394355
lradius 103.10399009888921
lwrist 34.14738780866227
lhand -24.52741069716771 0.9723513716349501
lfingers 7.125020000000057
lthumb 1.9680093015206996 30.94301135367026
rclavicle -9.152774484895197e-16 -7.746725510553891e-16
rhumerus -43.906995220970515 18.024685266286735 -97.35868947755586
rradius 118.12298647993777
rwrist -8.636696413034684
rhand -19.122993481667788 40.885987414623955
rfingers 7.125020000000057
rthumb 7.186456517378802 11.027987463202834
12
root -0.6602100145345204 19.001572981609478 -20.583786806923037 3.5053908086709153 4.51860597783733 -6.280727880103832
lfemur -31.11858965182055 -4.765291045452443 -15.715706833494817
ltibia 27.690605788641633
lfoot 3.839545327660901 -6.137238883148882
ltoes -22.704483706396356
rfemur 11.934985197012308 8.299047480344653 35.27768739314167
rtibia 41.73750251668057
rfoot 25.532980541871318 -6.532860614771948
rtoes 21.257183584793758
lowerback 12.500999697231919 2.2644184464396617 6.214607184926869
upperback -2.4635732832805073 4.218596553527482 2.063475111442364
thorax -9.410268840681887 1.7499077856285785 -2.128348393596088
lowerneck -17.786999635841063 -5.538341760451116 -1.8250136307400218
upperneck 17.252700369008554 -7.4494231066580205 1.6077115042199175
head 8.424980350304164 -3.4663010731446233 -0.08674162300737936
lclavicle -9.15277484453065e-16 -7.746725225881112e-16
lhumerus -73.39037595236738 -1.8815608679400233 95.57198816606589
lradius 103.34399004214855
lwrist 33.890187989270345
lhand -23.891612684946303 0.9117274274595655
lfingers 7.125020000000057
lthumb 2.5820173135867472 30.875811415540717
rclavicle -9.15277484453065e-16 -7.746725225881112e-16
rhumerus -44.68379463049851 19.05668464931633 -98.23768866327055
rradius 117.97398651572036
rwrist -7.988096952236001
rhand -18.66619612084185 41.658586546694416
rfingers 7.125020000000057
rthumb 7.627383877710036 11.816086577564725
13
root -0.6536311116367448 18.96747377537661 -19.544387257244946 3.1954616866996335 4.6184657102747035 -5.999588690258629
lfemur -29.69459044111361 -5.821848343295873 -16.008206394835945
ltibia 22.89920768140317
lfoot 4.568334803647826 -5.87836921364399
ltoes -17.214589512344368
rfemur 11.024185698813978 8.424617182859826 35.28108738789933
rtibia 48.198000102161735
rfoot 24.21678146018323 -8.046627702921512
rtoes 21.311683534980155
lowerback 12.300300403138193 2.2566784981125587 5.5160989687109385
upperback -2.648461047510299 4.103027034585185 2.165034188725694
thorax -9.558388117369528 1.7302979717075617 -1.6030004996734526
lowerneck -15.77970911034992 -5.464902405264363 -1.9001624222184996
upperneck 15.830603067352522 -7.340473740457945 1.718710919792187
head 7.605155909305823 -3.4499512999179345 0.05513622969050974
lclavicle -9.152775262412306e-16 -7.746725636341224e-16
lhumerus -74.09007546100611 -2.0442706850451757 96.39848703702434
lradius 103.50599000384872
lwrist 33.889787989551245
lhand -23.81961291004864 0.5963567178635873
lfingers 7.125020000000057
lthumb 2.651547088474704 30.559611706663308
rclavicle -9.152775262412306e-16 -7.746725636341224e-16
rhumerus -46.37819334252765 19.38938445041509 -99.13908782823437
rradius 117.32298667205805
rwrist -7.597417277020414
rhand -18.21979869992964 41.62078658915845
rfingers 7.125020000000057
rthumb 8.058171298745332 11.794386601950382
